<svg xmlns="http://www.w3.org/2000/svg" viewBox="0 0 100 100">
  <defs>
    <linearGradient id="leafGradient" x1="0%" y1="0%" x2="100%" y2="100%">
      <stop offset="0%" style="stop-color:#4CAF50;stop-opacity:1" />
      <stop offset="100%" style="stop-color:#8BC34A;stop-opacity:1" />
    </linearGradient>
  </defs>
  <!-- Leaf shape -->
  <path d="M50,10 Q70,30 75,50 Q70,70 50,90 Q30,70 25,50 Q30,30 50,10 Z" 
        fill="url(#leafGradient)" 
        stroke="#2E7D32" 
        stroke-width="2"/>
  <!-- Leaf vein -->
  <path d="M50,10 L50,90" 
        stroke="#2E7D32" 
        stroke-width="2" 
        fill="none"/>
  <!-- Side veins -->
  <path d="M50,30 Q40,35 35,40" 
        stroke="#2E7D32" 
        stroke-width="1.5" 
        fill="none" 
        opacity="0.7"/>
  <path d="M50,50 Q40,52 35,55" 
        stroke="#2E7D32" 
        stroke-width="1.5" 
        fill="none" 
        opacity="0.7"/>
  <path d="M50,70 Q40,70 35,72" 
        stroke="#2E7D32" 
        stroke-width="1.5" 
        fill="none" 
        opacity="0.7"/>
  <path d="M50,30 Q60,35 65,40" 
        stroke="#2E7D32" 
        stroke-width="1.5" 
        fill="none" 
        opacity="0.7"/>
  <path d="M50,50 Q60,52 65,55" 
        stroke="#2E7D32" 
        stroke-width="1.5" 
        fill="none" 
        opacity="0.7"/>
  <path d="M50,70 Q60,70 65,72" 
        stroke="#2E7D32" 
        stroke-width="1.5" 
        fill="none" 
        opacity="0.7"/>
</svg>
